<svg width="15" height="15" viewBox="0 0 15 15" fill="none" xmlns="http://www.w3.org/2000/svg">
<path d="M14.9651 10.2708C15.1351 9.86585 14.6493 9.52085 14.2418 9.70085C13.4273 10.0584 12.5472 10.2423 11.6576 10.2408C8.17008 10.2408 5.34339 7.47086 5.34339 4.05337C5.34211 2.89949 5.66993 1.76918 6.28839 0.795047C6.52506 0.421715 6.24089 -0.0949504 5.80756 0.0150492C2.46669 0.867546 0 3.8442 0 7.38503C0 11.5908 3.4792 15 7.77174 15C11.0218 15 13.8051 13.0458 14.9651 10.2708Z" fill="black"/>
<path d="M10.4921 0.0859976C10.0487 -0.210161 9.52001 0.318574 9.81531 0.761975L10.3423 1.55257C10.5561 1.87312 10.6702 2.24982 10.6702 2.63514C10.6702 3.02045 10.5561 3.39715 10.3423 3.7177L9.81531 4.5083C9.52001 4.9517 10.0495 5.48043 10.4929 5.18427L11.2826 4.65721C11.6031 4.4434 11.9798 4.3293 12.3651 4.3293C12.7504 4.3293 13.127 4.4434 13.4476 4.65721L14.2381 5.18427C14.6815 5.48043 15.2101 4.9517 14.914 4.5083L14.387 3.7177C14.1732 3.39715 14.0591 3.02045 14.0591 2.63514C14.0591 2.24982 14.1732 1.87312 14.387 1.55257L14.914 0.761975C15.2101 0.318574 14.6815 -0.210161 14.2372 0.0859976L13.4476 0.613059C13.127 0.826869 12.7504 0.940968 12.3651 0.940968C11.9798 0.940968 11.6031 0.826869 11.2826 0.613059L10.4921 0.0859976Z" fill="black"/>
</svg>
