<svg width="25" height="25" viewBox="0 0 36 29" fill="none" xmlns="http://www.w3.org/2000/svg">
<path d="M17.4062 3.84375V0.9375C17.4062 0.809036 17.4688 0.685833 17.5802 0.594995C17.6915 0.504157 17.8425 0.453125 18 0.453125C18.1575 0.453125 18.3085 0.504157 18.4198 0.594995C18.5312 0.685833 18.5938 0.809036 18.5938 0.9375V3.84375C18.5938 3.97221 18.5312 4.09542 18.4198 4.18625C18.3085 4.27709 18.1575 4.32812 18 4.32812C17.8425 4.32812 17.6915 4.27709 17.5802 4.18625C17.4688 4.09542 17.4062 3.97221 17.4062 3.84375ZM26.9062 14.5C26.9062 15.937 26.3839 17.3417 25.4053 18.5366C24.4266 19.7314 23.0357 20.6626 21.4083 21.2126C19.7809 21.7625 17.9901 21.9064 16.2625 21.626C14.5348 21.3457 12.9479 20.6537 11.7023 19.6376C10.4568 18.6215 9.60853 17.3268 9.26488 15.9175C8.92123 14.5081 9.09761 13.0472 9.7717 11.7196C10.4458 10.3919 11.5873 9.25721 13.052 8.45885C14.5166 7.6605 16.2385 7.23438 18 7.23438C20.3612 7.23662 22.625 8.00282 24.2946 9.36491C25.9643 10.727 26.9035 12.5737 26.9062 14.5ZM25.7188 14.5C25.7187 13.2546 25.2661 12.0372 24.4179 11.0016C23.5698 9.96613 22.3643 9.15904 20.9538 8.68245C19.5434 8.20585 17.9914 8.08115 16.4941 8.32412C14.9969 8.56708 13.6215 9.1668 12.542 10.0474C11.4625 10.9281 10.7274 12.0501 10.4296 13.2715C10.1317 14.493 10.2846 15.7591 10.8688 16.9097C11.453 18.0603 12.4424 19.0438 13.7117 19.7357C14.981 20.4276 16.4734 20.7969 18 20.7969C20.0464 20.795 22.0083 20.1309 23.4554 18.9504C24.9024 17.77 25.7164 16.1694 25.7188 14.5ZM8.07992 7.0927C8.19133 7.18358 8.34244 7.23464 8.5 7.23464C8.65756 7.23464 8.80867 7.18358 8.92008 7.0927C9.03149 7.00181 9.09408 6.87854 9.09408 6.75C9.09408 6.62146 9.03149 6.49819 8.92008 6.4073L6.54508 4.4698C6.43367 4.37892 6.28256 4.32786 6.125 4.32786C5.96744 4.32786 5.81633 4.37892 5.70492 4.4698C5.59351 4.56069 5.53092 4.68396 5.53092 4.8125C5.53092 4.94104 5.59351 5.06431 5.70492 5.1552L8.07992 7.0927ZM8.07992 21.9073L5.70492 23.8448C5.64976 23.8898 5.606 23.9432 5.57614 24.002C5.54629 24.0608 5.53092 24.1239 5.53092 24.1875C5.53092 24.2511 5.54629 24.3142 5.57614 24.373C5.606 24.4318 5.64976 24.4852 5.70492 24.5302C5.76009 24.5752 5.82558 24.6109 5.89766 24.6353C5.96973 24.6596 6.04698 24.6721 6.125 24.6721C6.20302 24.6721 6.28027 24.6596 6.35234 24.6353C6.42442 24.6109 6.48991 24.5752 6.54508 24.5302L8.92008 22.5927C9.03149 22.5018 9.09408 22.3785 9.09408 22.25C9.09408 22.1215 9.03149 21.9982 8.92008 21.9073C8.80867 21.8164 8.65756 21.7654 8.5 21.7654C8.34244 21.7654 8.19133 21.8164 8.07992 21.9073ZM27.5 7.23438C27.578 7.23443 27.6552 7.22194 27.7273 7.19763C27.7994 7.17332 27.8649 7.13766 27.9201 7.0927L30.2951 5.1552C30.3502 5.11019 30.394 5.05677 30.4239 4.99797C30.4537 4.93917 30.4691 4.87614 30.4691 4.8125C30.4691 4.74886 30.4537 4.68583 30.4239 4.62703C30.394 4.56823 30.3502 4.51481 30.2951 4.4698C30.2399 4.4248 30.1744 4.3891 30.1023 4.36475C30.0303 4.34039 29.953 4.32786 29.875 4.32786C29.797 4.32786 29.7197 4.34039 29.6477 4.36475C29.5756 4.3891 29.5101 4.4248 29.4549 4.4698L27.0799 6.4073C26.9968 6.47505 26.9402 6.56139 26.9172 6.6554C26.8943 6.74941 26.906 6.84686 26.951 6.93541C26.996 7.02397 27.0722 7.09965 27.1699 7.15286C27.2676 7.20608 27.3825 7.23445 27.5 7.23438ZM27.9201 21.9073C27.8087 21.8164 27.6576 21.7654 27.5 21.7654C27.3424 21.7654 27.1913 21.8164 27.0799 21.9073C26.9685 21.9982 26.9059 22.1215 26.9059 22.25C26.9059 22.3785 26.9685 22.5018 27.0799 22.5927L29.4549 24.5302C29.5101 24.5752 29.5756 24.6109 29.6477 24.6353C29.7197 24.6596 29.797 24.6721 29.875 24.6721C29.953 24.6721 30.0303 24.6596 30.1023 24.6353C30.1744 24.6109 30.2399 24.5752 30.2951 24.5302C30.3502 24.4852 30.394 24.4318 30.4239 24.373C30.4537 24.3142 30.4691 24.2511 30.4691 24.1875C30.4691 24.1239 30.4537 24.0608 30.4239 24.002C30.394 23.9432 30.3502 23.8898 30.2951 23.8448L27.9201 21.9073ZM4.9375 14.0156H1.375C1.21753 14.0156 1.06651 14.0667 0.955155 14.1575C0.843806 14.2483 0.78125 14.3715 0.78125 14.5C0.78125 14.6285 0.843806 14.7517 0.955155 14.8425C1.06651 14.9333 1.21753 14.9844 1.375 14.9844H4.9375C5.09497 14.9844 5.24599 14.9333 5.35734 14.8425C5.46869 14.7517 5.53125 14.6285 5.53125 14.5C5.53125 14.3715 5.46869 14.2483 5.35734 14.1575C5.24599 14.0667 5.09497 14.0156 4.9375 14.0156ZM18 24.6719C17.8425 24.6719 17.6915 24.7229 17.5802 24.8137C17.4688 24.9046 17.4062 25.0278 17.4062 25.1562V28.0625C17.4062 28.191 17.4688 28.3142 17.5802 28.405C17.6915 28.4958 17.8425 28.5469 18 28.5469C18.1575 28.5469 18.3085 28.4958 18.4198 28.405C18.5312 28.3142 18.5938 28.191 18.5938 28.0625V25.1562C18.5938 25.0278 18.5312 24.9046 18.4198 24.8137C18.3085 24.7229 18.1575 24.6719 18 24.6719ZM34.625 14.0156H31.0625C30.905 14.0156 30.754 14.0667 30.6427 14.1575C30.5313 14.2483 30.4688 14.3715 30.4688 14.5C30.4688 14.6285 30.5313 14.7517 30.6427 14.8425C30.754 14.9333 30.905 14.9844 31.0625 14.9844H34.625C34.7825 14.9844 34.9335 14.9333 35.0448 14.8425C35.1562 14.7517 35.2188 14.6285 35.2188 14.5C35.2188 14.3715 35.1562 14.2483 35.0448 14.1575C34.9335 14.0667 34.7825 14.0156 34.625 14.0156Z" fill="black"/>
</svg>
